<?xml version="1.0" encoding="UTF-8" standalone="no"?>
<svg width="800px" height="800px" viewBox="0 0 800 800" version="1.1" xmlns="http://www.w3.org/2000/svg" xmlns:xlink="http://www.w3.org/1999/xlink">
    <!-- Generator: Sketch 43.2 (39069) - http://www.bohemiancoding.com/sketch -->
    <title>nicohaho-logo</title>
    <desc>Created with Sketch.</desc>
    <defs>
        <linearGradient x1="50%" y1="0%" x2="50%" y2="100%" id="linearGradient-1">
            <stop stop-color="#00E39B" offset="0%"></stop>
            <stop stop-color="#008EB1" offset="100%"></stop>
        </linearGradient>
        <path d="M215.888889,67.1205253 C215.888889,59.8758086 221.758296,54 229,54 C236.241704,54 242.111111,59.8758086 242.111111,67.1205253 L242.111111,445.877288 C242.111111,451.816512 238.125333,457.014427 232.391407,458.551715 C231.266037,458.853487 230.12537,459 229,459 C224.400185,459 220.02763,456.568329 217.643593,452.437551 L78.2222222,210.777156 L78.2222222,351.188644 C78.2222222,358.435547 72.3506296,364.309169 65.1111111,364.309169 C57.8694074,364.309169 52,358.435547 52,351.188644 L52,161.809169 C52,161.688898 52.0152963,161.568626 52.0174815,161.446168 C52.0262222,161.185944 52.034963,160.927907 52.0568148,160.66987 C52.0742963,160.464315 52.1048889,160.260947 52.1289259,160.059766 C52.1595185,159.847651 52.1879259,159.639909 52.2250741,159.429981 C52.2687778,159.195998 52.3234074,158.966389 52.378037,158.73678 C52.4195556,158.559652 52.4610741,158.384712 52.5135185,158.209772 C52.5790741,157.971416 52.6577407,157.737433 52.7385926,157.501263 C52.7954074,157.33507 52.8544074,157.168877 52.919963,157.00487 C53.0095556,156.781821 53.1035185,156.563146 53.2018519,156.348844 C53.2827037,156.171717 53.3657407,155.996777 53.4553333,155.824023 C53.5514815,155.631589 53.6541852,155.447901 53.7590741,155.262027 C53.8727037,155.069593 53.9885185,154.879345 54.1087037,154.689098 C54.2092222,154.536025 54.3119259,154.385139 54.419,154.234253 C54.5632222,154.033071 54.7096296,153.834077 54.8625926,153.641642 C54.9674815,153.50825 55.0767407,153.381419 55.1881852,153.2524 C55.3520741,153.059966 55.5247037,152.869718 55.7017037,152.686031 C55.8218889,152.561386 55.9486296,152.441114 56.0753704,152.320843 C56.2501852,152.152463 56.4293704,151.988456 56.6129259,151.83101 C56.7702593,151.695431 56.931963,151.570786 57.0936667,151.443954 C57.2597407,151.317123 57.428,151.185917 57.6028148,151.065646 C57.8082222,150.919133 58.0245556,150.785741 58.2408889,150.652349 C58.3457778,150.586747 58.4462963,150.512397 58.5555556,150.448981 C58.5970741,150.42274 58.6407778,150.405246 58.6844815,150.381192 C58.9292222,150.243426 59.1827037,150.120968 59.4361852,149.99851 C59.576037,149.93072 59.7137037,149.858557 59.8535556,149.797328 C60.1004815,149.687991 60.3561481,149.59396 60.6118148,149.49993 C60.766963,149.443074 60.9199259,149.379658 61.0750741,149.33155 C61.3045185,149.255013 61.5383333,149.198158 61.769963,149.136929 C61.9600741,149.086633 62.1523704,149.029778 62.3446667,148.988229 C62.5413333,148.946681 62.7445556,148.918253 62.9434074,148.883265 C63.1772222,148.843904 63.411037,148.802355 63.6448519,148.778301 C63.8218519,148.75862 64.001037,148.749873 64.1802222,148.736753 C64.4358889,148.719259 64.6937407,148.701765 64.9515926,148.699578 C65.0062222,148.697391 65.0564815,148.690831 65.1111111,148.690831 C65.250963,148.690831 65.3864444,148.706138 65.5241111,148.710512 C65.7601111,148.719259 65.9939259,148.725819 66.2277407,148.7455 C66.4571852,148.76518 66.6800741,148.797982 66.9073333,148.82641 C67.0930741,148.854837 67.281,148.878892 67.4667407,148.91388 C67.7224074,148.957615 67.9715185,149.016657 68.2184444,149.075699 C68.3757778,149.115061 68.5309259,149.154423 68.6860741,149.195971 C68.9439259,149.270321 69.1974074,149.353417 69.4465185,149.438701 C69.5951111,149.491183 69.7480741,149.545852 69.8944815,149.604894 C70.1304815,149.696738 70.3621111,149.797328 70.5915556,149.904479 C70.7554444,149.978829 70.9193333,150.057552 71.081037,150.140649 C71.2820741,150.241239 71.4765556,150.350577 71.671037,150.462102 C71.8545926,150.569253 72.035963,150.67859 72.2151481,150.792302 C72.3768519,150.899453 72.5363704,151.006603 72.6937037,151.120315 C72.8903704,151.25808 73.0826667,151.400219 73.2705926,151.551105 C73.4060741,151.658256 73.5371852,151.771967 73.6682963,151.883492 C73.8584074,152.049685 74.0463333,152.218065 74.2298889,152.393006 C74.3522593,152.515464 74.4746296,152.640109 74.5948148,152.769127 C74.7630741,152.944068 74.926963,153.121195 75.0864815,153.309256 C75.2175926,153.464515 75.3421481,153.624148 75.4688889,153.785968 C75.5978148,153.954348 75.7267407,154.122728 75.8512963,154.297669 C75.9955185,154.50541 76.1288148,154.717525 76.2599259,154.934014 C76.3276667,155.041165 76.401963,155.139569 76.4653333,155.251093 L215.888889,396.911488 L215.888889,67.1205253 Z M276.261185,312.288473 C272.642519,306.012489 274.78837,297.989288 281.059852,294.365836 L379.777778,237.330913 L379.777778,161.809169 C379.777778,154.566639 385.64937,148.690831 392.888889,148.690831 C400.128407,148.690831 406,154.566639 406,161.809169 L406,351.188644 C406,358.435547 400.128407,364.309169 392.888889,364.309169 C385.64937,364.309169 379.777778,358.435547 379.777778,351.188644 L379.777778,267.632766 L294.170963,317.090586 C292.105963,318.282367 289.853037,318.850923 287.628519,318.850923 C283.096444,318.850923 278.688926,316.497975 276.261185,312.288473 Z" id="path-2"></path>
        <filter x="-0.4%" y="-0.4%" width="100.8%" height="100.7%" filterUnits="objectBoundingBox" id="filter-3">
            <feGaussianBlur stdDeviation="1" in="SourceAlpha" result="shadowBlurInner1"></feGaussianBlur>
            <feOffset dx="0" dy="1" in="shadowBlurInner1" result="shadowOffsetInner1"></feOffset>
            <feComposite in="shadowOffsetInner1" in2="SourceAlpha" operator="arithmetic" k2="-1" k3="1" result="shadowInnerInner1"></feComposite>
            <feColorMatrix values="0 0 0 0 0   0 0 0 0 0   0 0 0 0 0  0 0 0 0.5 0" type="matrix" in="shadowInnerInner1"></feColorMatrix>
        </filter>
        <polygon id="path-4" points="141.937816 550.590073 102.87799 550.590073 102.87799 641.999546 141.937816 641.999546 141.937816 550.590073"></polygon>
        <polygon id="path-6" points="0 642 453.268284 642 453.268284 550.590073 0 550.590073"></polygon>
    </defs>
    <g id="Page-1" stroke="none" stroke-width="1" fill="none" fill-rule="evenodd">
        <g id="nicohaho-logo">
            <g id="Group-13" transform="translate(72.000000, 536.000000)">
                <g id="Group-5" transform="translate(102.865672, 0.000000)"></g>
            </g>
            <g id="Group" transform="translate(72.000000, 536.000000)"></g>
            <g id="Group-2" transform="translate(171.000000, 64.000000)">
                <g id="icon">
                    <path d="M200.59375,7.68212182 L28.65625,107.010649 C10.9237625,117.255008 0,136.186197 0,156.672619 L0,355.325087 C0,375.813803 10.9237625,394.744992 28.65625,404.987057 L200.59375,504.315584 C209.458848,509.440057 219.35557,512 229.25,512 C239.14443,512 249.041153,509.440057 257.90625,504.315584 L429.84375,404.987057 C447.576237,394.744992 458.5,375.813803 458.5,355.325087 L458.5,156.672619 C458.5,136.186197 447.576237,117.255008 429.84375,107.010649 L257.90625,7.68212182 C249.11222,2.60123205 239.304905,0.0389955422 229.48842,0 C219.195095,0.0389955422 209.38778,2.60123205 200.59375,7.68212182 Z" id="Fill-1" fill="url(#linearGradient-1)" fill-rule="evenodd"></path>
                    <g id="Combined-Shape">
                        <use fill="#FFFFFF" fill-rule="evenodd" xlink:href="#path-2"></use>
                        <use fill="black" fill-opacity="1" filter="url(#filter-3)" xlink:href="#path-2"></use>
                    </g>
                </g>
                <polygon id="Fill-1" fill="#0094AF" points="26.0444509 550 26.0444509 595.501129 12.9555491 550 0 550 0 641 12.9555491 641 12.9555491 595.501129 26.0444509 641 39 641 39 550"></polygon>
                <polygon id="Fill-2" fill="#0094AF" points="52 550 52 562.943547 65 562.943547 65 628.056453 52 628.056453 52 641 91 641 91 628.056453 78 628.056453 78 562.943547 91 562.943547 91 550"></polygon>
                <mask id="mask-5" fill="white">
                    <use xlink:href="#path-4"></use>
                </mask>
                <g id="Clip-4"></g>
                <path d="M102.87799,557.156327 C102.87799,553.608717 105.76192,550.58962 109.300055,550.58962 L135.384458,550.58962 C139.053886,550.58962 141.937816,553.608717 141.937816,557.156327 L141.937816,570.289741 L128.8311,570.289741 L128.8311,563.723034 L115.853413,563.723034 L115.853413,628.997693 L128.8311,628.997693 L128.8311,622.430985 L141.937816,622.430985 L141.937816,635.432839 C141.937816,639.109741 139.053886,641.999546 135.384458,641.999546 L109.300055,641.999546 C105.76192,641.999546 102.87799,639.109741 102.87799,635.432839 L102.87799,557.156327 Z" id="Fill-3" fill="#0094AF" mask="url(#mask-5)"></path>
                <mask id="mask-7" fill="white">
                    <use xlink:href="#path-6"></use>
                </mask>
                <g id="Clip-7"></g>
                <path d="M166.047836,628.998146 L179.154552,628.998146 L179.154552,563.723488 L166.047836,563.723488 L166.047836,628.998146 Z M153.072413,557.15678 C153.072413,553.609171 155.956343,550.590073 159.625771,550.590073 L185.578881,550.590073 C189.248308,550.590073 192.129975,553.609171 192.129975,557.15678 L192.129975,635.433293 C192.129975,639.110195 189.248308,642 185.578881,642 L159.625771,642 C155.956343,642 153.072413,639.110195 153.072413,635.433293 L153.072413,557.15678 Z" id="Fill-6" fill="#0094AF" mask="url(#mask-7)"></path>
                <polygon id="Fill-8" fill="#0094AF" mask="url(#mask-7)" points="211.996045 600.760171 238.080448 600.760171 238.080448 587.758317 211.996045 587.758317"></polygon>
                <polygon id="Fill-9" fill="#0094AF" mask="url(#mask-7)" points="257.075453 550.590073 270.050876 550.590073 270.050876 583.292049 283.159856 583.292049 283.159856 550.590073 296.135279 550.590073 296.135279 642 283.159856 642 283.159856 596.293902 270.050876 596.293902 270.050876 642 257.075453 642"></polygon>
                <path d="M324.179577,602.862878 L337.286294,602.862878 L337.286294,563.723488 L324.179577,563.723488 L324.179577,602.862878 Z M311.201891,557.15678 C311.201891,553.609171 314.085821,550.590073 317.755249,550.590073 L343.706095,550.590073 C347.377786,550.590073 350.261716,553.609171 350.261716,557.15678 L350.261716,642 L337.286294,642 L337.286294,615.862463 L324.177313,615.862463 L324.177313,642 L311.201891,642 L311.201891,557.15678 Z" id="Fill-10" fill="#0094AF" mask="url(#mask-7)"></path>
                <path d="M364.016072,557.156327 C364.016072,553.608717 366.900002,550.58962 370.438137,550.58962 L396.52254,550.58962 C400.191968,550.58962 403.075898,553.608717 403.075898,557.156327 L403.075898,570.289741 L389.969182,570.289741 L389.969182,563.723034 L376.991495,563.723034 L376.991495,628.997693 L389.969182,628.997693 L389.969182,622.430985 L403.075898,622.430985 L403.075898,635.432839 C403.075898,639.109741 400.191968,641.999546 396.52254,641.999546 L370.438137,641.999546 C366.900002,641.999546 364.016072,639.109741 364.016072,635.432839 L364.016072,557.156327 Z" id="Fill-11" fill="#0094AF" mask="url(#mask-7)"></path>
                <path d="M427.186144,628.998146 L440.292861,628.998146 L440.292861,563.723488 L427.186144,563.723488 L427.186144,628.998146 Z M414.210721,557.15678 C414.210721,553.609171 417.094652,550.590073 420.76408,550.590073 L446.717189,550.590073 C450.386617,550.590073 453.268284,553.609171 453.268284,557.15678 L453.268284,635.433293 C453.268284,639.110195 450.386617,642 446.717189,642 L420.76408,642 C417.094652,642 414.210721,639.110195 414.210721,635.433293 L414.210721,557.15678 Z" id="Fill-12" fill="#0094AF" mask="url(#mask-7)"></path>
            </g>
        </g>
    </g>
</svg>